<svg width="640" height="640" viewBox="0 0 640 640" fill="none" xmlns="http://www.w3.org/2000/svg">
  <rect width="640" height="640" fill="#F8FAFC" />
  <rect x="64" y="80" width="512" height="360" rx="20" fill="#FFFFFF" stroke="#E2E8F0" stroke-width="2" />
  <rect x="104" y="124" width="200" height="24" rx="12" fill="#0F172A" />
  <rect x="104" y="172" width="360" height="12" rx="6" fill="#CBD5F5" />
  <rect x="104" y="196" width="312" height="12" rx="6" fill="#CBD5F5" />
  <rect x="104" y="220" width="280" height="12" rx="6" fill="#CBD5F5" />
  <rect x="104" y="260" width="180" height="120" rx="16" fill="#F1F5F9" stroke="#E2E8F0" stroke-width="2" />
  <rect x="320" y="260" width="216" height="20" rx="10" fill="#0F172A" />
  <rect x="320" y="292" width="200" height="12" rx="6" fill="#CBD5F5" />
  <rect x="320" y="316" width="176" height="12" rx="6" fill="#CBD5F5" />
  <rect x="320" y="340" width="160" height="12" rx="6" fill="#CBD5F5" />
  <rect x="64" y="468" width="512" height="112" rx="20" fill="#FFFFFF" stroke="#E2E8F0" stroke-width="2" />
  <rect x="104" y="504" width="112" height="44" rx="10" fill="#0F172A" />
  <rect x="232" y="512" width="280" height="12" rx="6" fill="#CBD5F5" />
  <rect x="232" y="536" width="220" height="12" rx="6" fill="#CBD5F5" />
</svg>
